<svg xmlns="http://www.w3.org/2000/svg" viewBox="0 0 640 360" role="img" aria-label="Honda car">
  <defs>
    <linearGradient id="body" x1="112" y1="82" x2="528" y2="282" gradientUnits="userSpaceOnUse">
      <stop offset="0" stop-color="#ff3046"/>
      <stop offset=".46" stop-color="#d3132a"/>
      <stop offset="1" stop-color="#610713"/>
    </linearGradient>
    <linearGradient id="glass" x1="224" y1="86" x2="446" y2="182" gradientUnits="userSpaceOnUse">
      <stop offset="0" stop-color="#fff8f1"/>
      <stop offset=".55" stop-color="#d7d2cd"/>
      <stop offset="1" stop-color="#766f6b"/>
    </linearGradient>
    <filter id="softGlow" x="-18%" y="-24%" width="136%" height="152%">
      <feDropShadow dx="0" dy="16" stdDeviation="18" flood-color="#000" flood-opacity=".56"/>
      <feDropShadow dx="0" dy="0" stdDeviation="10" flood-color="#e8142d" flood-opacity=".34"/>
    </filter>
  </defs>

  <g filter="url(#softGlow)">
    <path fill="url(#body)" d="M91 217c9-38 33-63 79-72l51-58c16-18 38-27 66-27h93c31 0 54 10 72 31l46 53c34 7 53 25 58 54l7 39c4 23-12 43-36 43H113c-18 0-31-15-28-33l6-30Z"/>
    <path fill="#060506" d="M128 214c8-18 26-30 48-30h295c22 0 40 12 48 30l8 28H120l8-28Z"/>
    <path fill="url(#glass)" d="M244 95c12-12 28-18 49-18h79c22 0 39 7 51 21l35 42H205l39-45Z"/>
    <path fill="#0b090a" d="M292 86h82c17 0 30 5 40 15l21 25H229l25-28c9-8 21-12 38-12Z"/>
    <path fill="#fff8f1" d="M191 191h56l17 56h-37l-6-21h-41l-6 21h-37l17-56h37Zm-4 25h27l-6-21h-15l-6 21Zm206-25h37l-13 56h-38l-7-26-7 26h-38l-13-56h37l6 29 9-29h32l9 29 6-29Z"/>
    <path fill="#ed1029" d="M294 228h58c9 0 16 7 16 16v7h-90v-7c0-9 7-16 16-16Z"/>
    <circle cx="177" cy="260" r="38" fill="#050505"/>
    <circle cx="177" cy="260" r="17" fill="#e9dfd7"/>
    <circle cx="463" cy="260" r="38" fill="#050505"/>
    <circle cx="463" cy="260" r="17" fill="#e9dfd7"/>
    <path fill="none" stroke="#ff6878" stroke-linecap="round" stroke-width="9" d="M132 202c11-25 31-40 61-45l50-58c13-15 30-22 51-22h78c26 0 45 8 59 25l43 52c26 4 43 17 51 39"/>
    <path fill="none" stroke="#fff8f1" stroke-linecap="round" stroke-opacity=".65" stroke-width="7" d="M121 229h398"/>
  </g>
</svg>
