<svg xmlns="http://www.w3.org/2000/svg" viewBox="0 0 96 96" role="img" aria-label="Honda">
  <defs>
    <linearGradient id="bg" x1="14" y1="10" x2="82" y2="86" gradientUnits="userSpaceOnUse">
      <stop offset="0" stop-color="#191012"/>
      <stop offset=".55" stop-color="#080707"/>
      <stop offset="1" stop-color="#030303"/>
    </linearGradient>
    <linearGradient id="edge" x1="12" y1="10" x2="84" y2="86" gradientUnits="userSpaceOnUse">
      <stop offset="0" stop-color="#ff3046"/>
      <stop offset=".48" stop-color="#b61122"/>
      <stop offset="1" stop-color="#5b0711"/>
    </linearGradient>
    <filter id="shadow" x="-24%" y="-24%" width="148%" height="148%">
      <feDropShadow dx="0" dy="8" stdDeviation="8" flood-color="#000" flood-opacity=".45"/>
      <feDropShadow dx="0" dy="0" stdDeviation="4" flood-color="#e8142d" flood-opacity=".32"/>
    </filter>
  </defs>
  <g filter="url(#shadow)">
    <rect x="9" y="9" width="78" height="78" rx="14" fill="url(#edge)"/>
    <rect x="16" y="16" width="64" height="64" rx="9" fill="url(#bg)"/>
    <path fill="#f8eee8" d="M25 27h14l6 34h6l6-34h14L61 70H48c-5 0-8-2-9-7l-2-12-2 12c-1 5-4 7-9 7H13l12-43Z" transform="translate(6)"/>
    <path fill="#d3132a" d="M41 63h14c4 0 7 3 7 7v2H34v-2c0-4 3-7 7-7Z"/>
    <rect x="20" y="20" width="56" height="56" rx="8" fill="none" stroke="#ff6a78" stroke-opacity=".5" stroke-width="2"/>
  </g>
</svg>
