<svg xmlns="http://www.w3.org/2000/svg" viewBox="0 0 512 340" role="img" aria-label="Honda">
  <rect x="40" y="38" width="432" height="282" rx="70" fill="#fff"/>
  <path fill="#ed001b" fill-rule="evenodd" d="M256 18c-104 0-174 7-207 39C15 90 14 160 24 236c8 62 34 87 99 99 38 7 82 8 133 8s95-1 133-8c65-12 91-37 99-99 10-76 9-166-25-199C430 25 360 18 256 18Zm0 29c96 0 159 6 195 35 20 24 24 98 15 166-7 52-27 72-84 82-35 6-77 8-126 8s-91-2-126-8c-57-10-77-30-84-82-9-68-5-142 15-166 36-29 99-35 195-35Zm-111 25c36-7 74-10 111-10s75 3 111 10c-9 72-27 140-61 176-15 16-31 22-50 22s-35-6-50-22c-34-36-52-104-61-176Zm-48 12c-17 25-24 70-24 128 0 59 7 89 24 101 13 9 42 18 78 22-21-101-42-218-78-251Zm318 0c-36 33-57 150-78 251 36-4 65-13 78-22 17-12 24-42 24-101 0-58-7-103-24-128ZM201 316l19-61c11-9 28-14 56-14s45 5 56 14l19 61c-37 6-72 8-95 8s-58-2-95-8Z" clip-rule="evenodd"/>
</svg>
