<?xml version="1.0" standalone="no"?>
<!DOCTYPE svg PUBLIC "-//W3C//DTD SVG 20010904//EN"
 "http://www.w3.org/TR/2001/REC-SVG-20010904/DTD/svg10.dtd">
<svg version="1.0" xmlns="http://www.w3.org/2000/svg"
 width="422.000000pt" height="300.000000pt" viewBox="0 0 422.000000 300.000000"
 preserveAspectRatio="xMidYMid meet">

<g transform="translate(0.000000,300.000000) scale(0.100000,-0.100000)"
fill="#000000" stroke="none">
<path d="M1570 2729 c-166 -11 -385 -36 -490 -55 -284 -50 -433 -161 -504
-374 -40 -121 -48 -190 -53 -473 -12 -605 62 -1141 189 -1379 79 -148 266
-252 518 -287 218 -31 789 -55 1085 -46 339 10 677 34 793 56 234 45 393 143
465 286 125 247 197 791 184 1393 -6 292 -22 391 -81 517 -87 183 -241 273
-540 318 -271 40 -405 47 -926 50 -283 2 -571 -1 -640 -6z m1184 -148 c44 -6
83 -14 88 -19 9 -9 -135 -584 -214 -857 -71 -244 -138 -386 -208 -435 -79 -56
-115 -64 -281 -65 l-156 0 -69 35 c-151 77 -194 181 -385 923 -55 213 -97 391
-94 396 17 28 281 40 800 35 242 -2 476 -8 519 -13z m-1618 -59 c7 -5 13 -102
17 -292 8 -377 60 -1055 122 -1616 30 -269 31 -280 6 -294 -29 -15 -109 4
-194 45 -194 95 -237 164 -293 470 -54 292 -79 647 -71 1005 8 316 26 407 104
527 41 62 101 102 203 137 82 28 90 29 106 18z m2085 -8 c182 -54 273 -158
314 -357 34 -169 29 -730 -10 -1062 -19 -163 -59 -380 -86 -465 -32 -100 -79
-164 -157 -214 -119 -77 -241 -118 -283 -96 -22 12 -25 62 -9 170 21 151 87
863 116 1260 8 113 17 329 20 480 3 151 7 281 10 288 5 16 19 15 85 -4z m-904
-1665 c74 -14 125 -55 162 -131 45 -90 144 -419 130 -433 -14 -14 -924 -14
-939 1 -14 14 90 357 133 438 50 94 112 127 257 139 61 5 194 -2 257 -14z"/>
</g>
</svg>
