<svg xmlns="http://www.w3.org/2000/svg" viewBox="0 0 520 340" role="img" aria-label="Honda service">
  <defs>
    <linearGradient id="case" x1="62" y1="42" x2="458" y2="298" gradientUnits="userSpaceOnUse">
      <stop offset="0" stop-color="#ff233b"/>
      <stop offset=".38" stop-color="#bd1024"/>
      <stop offset="1" stop-color="#520711"/>
    </linearGradient>
    <linearGradient id="well" x1="96" y1="70" x2="426" y2="270" gradientUnits="userSpaceOnUse">
      <stop offset="0" stop-color="#230308"/>
      <stop offset=".55" stop-color="#0b090a"/>
      <stop offset="1" stop-color="#020202"/>
    </linearGradient>
    <linearGradient id="hmark" x1="136" y1="76" x2="386" y2="270" gradientUnits="userSpaceOnUse">
      <stop offset="0" stop-color="#fff8f1"/>
      <stop offset=".48" stop-color="#e8e0d8"/>
      <stop offset="1" stop-color="#a69b94"/>
    </linearGradient>
    <filter id="shadow" x="-18%" y="-22%" width="136%" height="148%">
      <feDropShadow dx="0" dy="18" stdDeviation="18" flood-color="#000" flood-opacity=".5"/>
      <feDropShadow dx="0" dy="0" stdDeviation="10" flood-color="#e8142d" flood-opacity=".34"/>
    </filter>
  </defs>

  <g filter="url(#shadow)">
    <path fill="url(#case)" d="M86 45h348c38 0 62 24 62 62v126c0 38-24 62-62 62H86c-38 0-62-24-62-62V107c0-38 24-62 62-62Z"/>
    <path fill="#120105" d="M94 67h332c27 0 48 21 48 48v110c0 27-21 48-48 48H94c-27 0-48-21-48-48V115c0-27 21-48 48-48Z"/>
    <path fill="url(#well)" d="M104 83h312c21 0 38 17 38 38v98c0 21-17 38-38 38H104c-21 0-38-17-38-38v-98c0-21 17-38 38-38Z"/>
    <path fill="#fff" opacity=".12" d="M102 85h316c18 0 32 14 32 32v14C331 104 200 105 70 137v-16c0-20 13-36 32-36Z"/>

    <path fill="url(#hmark)" d="M123 93h58l25 119 32-1 21-105c4-18 11-27 25-27h58l-32 132 33 1 26-119h58l-43 163h-82c-15 0-24-7-27-21l-15-67-15 67c-3 14-12 21-27 21h-82L123 93Z"/>
    <path fill="#ed1029" d="M232 224h56c10 0 18 8 18 18v8h-92v-8c0-10 8-18 18-18Z"/>
    <path fill="none" stroke="#ff6a78" stroke-opacity=".62" stroke-width="7" d="M92 65h336c29 0 49 20 49 49v112c0 29-20 49-49 49H92c-29 0-49-20-49-49V114c0-29 20-49 49-49Z"/>
  </g>
</svg>
